<?xml version="1.0" standalone="no"?>
<!DOCTYPE svg PUBLIC "-//W3C//DTD SVG 20010904//EN"
 "http://www.w3.org/TR/2001/REC-SVG-20010904/DTD/svg10.dtd">
<svg version="1.0" xmlns="http://www.w3.org/2000/svg"
 width="256.000000pt" height="256.000000pt" viewBox="0 0 256.000000 256.000000"
 preserveAspectRatio="xMidYMid meet">
<metadata>
Created by potrace 1.11, written by Peter Selinger 2001-2013
</metadata>
<g transform="translate(0.000000,256.000000) scale(0.100000,-0.100000)"
fill="#000000" stroke="none">
<path d="M1234 2216 c-43 -16 -92 -53 -99 -76 -6 -18 -16 -20 -127 -20 -90 0
-129 -4 -154 -16 -38 -18 -69 -56 -79 -97 l-7 -27 -248 0 c-136 0 -262 -3
-280 -6 -44 -9 -116 -80 -126 -124 -4 -19 -8 -314 -9 -655 l0 -620 23 -48 c17
-34 37 -55 70 -75 l47 -27 1020 0 c561 -1 1038 3 1060 8 55 11 104 52 127 103
18 42 19 71 16 682 l-3 638 -24 36 c-13 19 -40 46 -59 59 -35 24 -41 24 -311
29 -152 3 -272 7 -268 8 5 1 -4 24 -19 51 -37 68 -71 81 -219 81 -108 0 -115
1 -126 23 -34 62 -134 98 -205 73z m112 -62 c22 -32 24 -55 8 -85 -34 -68
-144 -41 -144 35 1 37 18 62 50 74 34 13 69 3 86 -24z m977 -259 c15 -4 37
-21 49 -38 l23 -31 0 -623 c0 -614 -1 -622 -21 -650 -12 -15 -32 -34 -45 -40
-19 -10 -257 -13 -1042 -13 -1118 0 -1059 -3 -1092 60 -13 25 -15 113 -15 649
1 616 1 619 22 646 12 15 33 32 48 39 32 13 2026 15 2073 1z"/>
<path d="M675 1773 c-84 -23 -143 -111 -136 -206 1 -15 -6 -38 -15 -52 -10
-15 -12 -25 -5 -25 6 0 11 -6 11 -14 0 -8 8 -21 18 -28 9 -7 26 -32 36 -55 29
-66 76 -105 134 -111 33 -3 59 1 81 12 32 17 91 89 91 112 0 7 11 23 24 36 30
28 44 76 24 83 -9 4 -12 19 -10 51 7 77 -35 147 -108 183 -35 17 -107 24 -145
14z"/>
<path d="M1470 1453 c-89 -23 -140 -62 -179 -139 -28 -54 -33 -76 -33 -157 1
-130 55 -224 154 -267 69 -30 206 -33 286 -6 l52 18 1 49 c3 183 1 231 -9 241
-6 6 -57 11 -119 11 l-108 1 -3 -42 c-3 -35 0 -42 15 -43 10 0 38 -2 63 -2
l45 -2 2 -68 c2 -81 -10 -91 -97 -85 -106 8 -163 77 -164 198 -1 126 62 201
179 208 49 3 74 -1 125 -22 35 -14 65 -24 67 -23 1 2 3 20 5 41 2 30 -3 43
-21 57 -48 39 -173 55 -261 32z"/>
<path d="M1883 1447 c-10 -17 -6 -558 4 -568 6 -6 30 -9 54 -7 l44 3 5 145 5
145 29 -45 c16 -25 51 -79 77 -120 81 -127 84 -130 139 -130 80 0 80 0 -47
194 l-81 125 89 117 c49 64 89 122 89 129 0 32 -90 35 -119 4 -11 -12 -55 -73
-98 -136 l-78 -115 -3 128 c-2 87 -7 131 -15 136 -16 10 -87 7 -94 -5z"/>
<path d="M400 1184 c-133 -65 -121 -57 -124 -81 -2 -13 17 -32 67 -65 60 -40
71 -52 73 -78 1 -17 16 -46 33 -66 18 -19 28 -40 25 -46 -4 -6 -3 -8 3 -5 5 4
34 -24 64 -61 135 -168 124 -159 198 -156 35 1 67 6 71 11 4 4 60 73 124 152
85 106 116 151 116 171 0 23 12 36 69 75 71 49 84 64 73 82 -4 6 -59 35 -122
66 l-115 55 -6 -31 c-3 -18 -23 -68 -44 -112 -21 -44 -39 -82 -39 -85 -1 -3
-30 -71 -66 -153 -37 -87 -67 -142 -71 -135 -30 56 -208 469 -211 490 l-3 27
-115 -55z"/>
<path d="M704 1226 c-3 -9 -3 -23 0 -32 3 -9 -3 -31 -14 -49 l-21 -34 26 -99
c13 -55 26 -109 28 -121 7 -46 16 -27 45 96 31 127 31 128 12 158 -11 17 -18
44 -17 61 2 25 -2 29 -26 32 -18 2 -29 -2 -33 -12z"/>
</g>
</svg>
